<svg width="36" height="30" xmlns="http://www.w3.org/2000/svg" fill="#FFF" fill-rule="evenodd"><path d="M22.602.544a.822.822 0 0 0-.562-.518.799.799 0 0 0-.736.18L3.764 15.902l-2.985.131a.81.81 0 0 0-.643.373.856.856 0 0 0-.085.754l2.898 7.988a.822.822 0 0 0 .763.543.8.8 0 0 0 .505-.18l2.342-1.906 1.579.007 1.63 4.494a2.86 2.86 0 0 0 1.477 1.63 2.761 2.761 0 0 0 2.167.08l7.727-2.956a2.846 2.846 0 0 0 1.588-1.517c.236-.532.31-1.111.22-1.675l6.881.026h.011c.45 0 .815-.374.815-.836a.844.844 0 0 0-.1-.402L22.601.544zM4.084 23.487l-2.117-5.833 1.56-.069.89 2.454.891 2.453-1.224.995zm17.162 1.162c-.134.301-.373.53-.675.645l-7.727 2.956c-.3.115-.629.103-.922-.034a1.217 1.217 0 0 1-.628-.693l-1.416-3.904 11.386.043.015.042c.112.309.101.645-.033.945zM6.843 21.936l-1.8-4.962L18.652 4.796l3.65 10.062a.815.815 0 0 0 .763.544c.094 0 .19-.017.284-.052a.843.843 0 0 0 .479-1.075L19.963 3.623l1.524-1.363 7.172 19.76-21.816-.084zM28.58 10.798a.815.815 0 0 0 .763.544c.095 0 .19-.017.284-.053l4.535-1.734a.843.843 0 0 0 .478-1.075.808.808 0 0 0-1.046-.491l-4.535 1.734a.842.842 0 0 0-.479 1.075zm-1.67-4.941a.795.795 0 0 0 1.144-.13l2.492-3.196a.851.851 0 0 0-.126-1.174.8.8 0 0 0-1.144.13l-2.493 3.195a.852.852 0 0 0 .127 1.175zm8.425 9.872l-3.922-.743a.812.812 0 0 0-.947.671.834.834 0 0 0 .652.973l3.922.742a.82.82 0 0 0 .948-.67.834.834 0 0 0-.653-.973z"/></svg>