<svg width="14px" height="14px" viewBox="0 0 14 14" version="1.1" xmlns="http://www.w3.org/2000/svg" xmlns:xlink="http://www.w3.org/1999/xlink">
    <path d="M11.0833333,0 L2.91666667,0 C1.30608333,0 0,1.30608333 0,2.91666667 L0,11.0833333 C0,12.6939167 1.30608333,14 2.91666667,14 L11.0833333,14 C12.6945,14 14,12.6939167 14,11.0833333 L14,2.91666667 C14,1.30608333 12.6945,0 11.0833333,0 Z M9.33333333,4.08333333 L8.211,4.08333333 C7.85225,4.08333333 7.58333333,4.23033333 7.58333333,4.60191667 L7.58333333,5.25 L9.33333333,5.25 L9.1945,7 L7.58333333,7 L7.58333333,11.6666667 L5.83333333,11.6666667 L5.83333333,7 L4.66666667,7 L4.66666667,5.25 L5.83333333,5.25 L5.83333333,4.12825 C5.83333333,2.94875 6.454,2.33333333 7.85225,2.33333333 L9.33333333,2.33333333 L9.33333333,4.08333333 Z" id="Shape" stroke="none" fill="#323B43" fill-rule="evenodd"/>
</svg>