<svg width="14px" height="12px" viewBox="26 1 14 12" version="1.1" xmlns="http://www.w3.org/2000/svg" xmlns:xlink="http://www.w3.org/1999/xlink">
    <path d="M40,2.42063167 C39.4849167,2.66181296 38.9313333,2.82424118 38.3503333,2.89745693 C38.9435833,2.52276456 39.3991667,1.9290402 39.61325,1.22149303 C39.0585,1.56849877 38.4436667,1.82075472 37.7891667,1.95672683 C37.2659167,1.36792453 36.5186667,1 35.6926667,1 C33.83825,1 32.4755833,2.82485644 32.8944167,4.71923708 C30.508,4.59310911 28.3916667,3.38720263 26.97475,1.55434783 C26.22225,2.91591468 26.5845,4.69708778 27.8631667,5.5990566 C27.393,5.58305989 26.9496667,5.44708778 26.5629167,5.22005742 C26.5314167,6.62346185 27.4851667,7.9364233 28.8665,8.22867104 C28.46225,8.34433962 28.0195,8.37141099 27.5691667,8.28035275 C27.9343333,9.4837982 28.9948333,10.3593109 30.2525,10.3839212 C29.045,11.3824856 27.5236667,11.828548 26,11.6390484 C27.2710833,12.4985644 28.7813333,13 30.403,13 C35.7358333,13 38.74875,8.24958983 38.56675,3.98892535 C39.1279167,3.56132075 39.615,3.02789171 40,2.42063167 L40,2.42063167 Z" id="Shape" stroke="none" fill="#323B43" fill-rule="evenodd"/>
</svg>