<svg width="446" height="286" xmlns="http://www.w3.org/2000/svg" xmlns:xlink="http://www.w3.org/1999/xlink"><defs><linearGradient x1="7.985%" y1="0%" x2="62.819%" y2="88.211%" id="a"><stop stop-color="#1EEFB0" offset="0%"/><stop stop-color="#24CC82" offset="100%"/></linearGradient><path d="M227.818 14.1V1.994c0-1.09-.897-1.993-2.004-1.993H2.004A1.995 1.995 0 0 0 0 1.993v52.014C0 55.097.897 56 2.004 56h223.81c1.11 0 2.004-.892 2.004-1.993V27.899L236 21l-8.182-6.9z" id="c"/><filter x="-4.9%" y="-17%" width="109.7%" height="141.1%" filterUnits="objectBoundingBox" id="b"><feOffset dy="2" in="SourceAlpha" result="shadowOffsetOuter1"/><feGaussianBlur stdDeviation="3.5" in="shadowOffsetOuter1" result="shadowBlurOuter1"/><feComposite in="shadowBlurOuter1" in2="SourceAlpha" operator="out" result="shadowBlurOuter1"/><feColorMatrix values="0 0 0 0 0.196078431 0 0 0 0 0.231372549 0 0 0 0 0.262745098 0 0 0 0.134709013 0" in="shadowBlurOuter1"/></filter><path d="M225.577 15.837V1.992A2 2 0 0 0 223.575 0H2.002A1.997 1.997 0 0 0 0 1.992v67.016A2 2 0 0 0 2.002 71h221.573a1.997 1.997 0 0 0 2.002-1.992V30.163L234 23l-8.423-7.163z" id="e"/><filter x="-4.9%" y="-13.4%" width="109.8%" height="132.4%" filterUnits="objectBoundingBox" id="d"><feOffset dy="2" in="SourceAlpha" result="shadowOffsetOuter1"/><feGaussianBlur stdDeviation="3.5" in="shadowOffsetOuter1" result="shadowBlurOuter1"/><feComposite in="shadowBlurOuter1" in2="SourceAlpha" operator="out" result="shadowBlurOuter1"/><feColorMatrix values="0 0 0 0 0.196078431 0 0 0 0 0.231372549 0 0 0 0 0.262745098 0 0 0 0.12706635 0" in="shadowBlurOuter1"/></filter></defs><g fill="none" fill-rule="evenodd"><path d="M201.339 284.91c-63.858-17.1-42.217-64.791-93.353-134.01C56.849 81.68.39-44.414 152.789 15.855c152.397 60.27 226.658-26.899 272.596 35.285 45.939 62.183-160.188 250.869-224.046 233.77z" fill="url(#a)" transform="translate(7)"/><path d="M240.473 189.683H233m209.237 0h-7.473m-186.819 0h179.346" stroke="#504B46" stroke-linecap="round"/><path d="M324.976 124.703h-22.419c-20.636 0-37.363 16.623-37.363 37.131v1.857h18.681v25.992h59.782V163.69h18.682v-1.857c0-20.508-16.727-37.131-37.363-37.131" fill="#48B9DA"/><path d="M361.926 156.61c-.097-.693-.183-1.395-.317-2.079a1.778 1.778 0 0 0-.206.806c0 .494.206.94.523 1.274m-7.994-12.414a1.863 1.863 0 0 0-1.868 1.856c0 1.025.837 1.857 1.868 1.857a1.863 1.863 0 0 0 1.869-1.857 1.863 1.863 0 0 0-1.869-1.856m0 18.565c-.687 0-1.259.387-1.584.932h3.169c-.325-.545-.897-.932-1.585-.932m-20.55-35.275c0 1.025.837 1.857 1.869 1.857a1.863 1.863 0 0 0 1.868-1.857c0-.293-.082-.564-.206-.809a38.218 38.218 0 0 0-2.608-.758c-.542.327-.923.892-.923 1.567m11.21 11.14a1.863 1.863 0 0 0 1.868-1.857 1.863 1.863 0 0 0-1.868-1.856 1.863 1.863 0 0 0-1.869 1.856c0 1.025.837 1.857 1.869 1.857m-9.342 9.283a1.863 1.863 0 0 0 1.869-1.857 1.863 1.863 0 0 0-1.868-1.856 1.863 1.863 0 0 0-1.869 1.856c0 1.025.837 1.857 1.869 1.857m9.341 9.283a1.863 1.863 0 0 0 1.868-1.857 1.863 1.863 0 0 0-1.868-1.856 1.863 1.863 0 0 0-1.869 1.856c0 1.025.837 1.857 1.869 1.857m-9.342 9.283a1.863 1.863 0 0 0 1.869-1.857 1.863 1.863 0 0 0-1.868-1.857 1.863 1.863 0 0 0-1.869 1.857c0 1.025.837 1.857 1.869 1.857m7.472 7.426c0 .68.385 1.248.934 1.57v-3.14c-.549.322-.934.89-.934 1.57m-7.473 7.426a1.863 1.863 0 0 0-1.868 1.857c0 1.025.837 1.856 1.869 1.856a1.863 1.863 0 0 0 1.868-1.856 1.863 1.863 0 0 0-1.868-1.857m-18.682-51.984a1.863 1.863 0 0 0 1.868-1.857 1.863 1.863 0 0 0-1.868-1.856 1.863 1.863 0 0 0-1.868 1.856c0 1.025.836 1.857 1.868 1.857m9.341 9.283a1.863 1.863 0 0 0 1.868-1.857 1.863 1.863 0 0 0-1.868-1.856 1.863 1.863 0 0 0-1.869 1.856c0 1.025.837 1.857 1.869 1.857m-9.341 9.283a1.863 1.863 0 0 0 1.868-1.857 1.863 1.863 0 0 0-1.868-1.856 1.863 1.863 0 0 0-1.868 1.856c0 1.025.836 1.857 1.868 1.857m9.341 9.283a1.863 1.863 0 0 0 1.868-1.857 1.863 1.863 0 0 0-1.868-1.856 1.863 1.863 0 0 0-1.869 1.856c0 1.025.837 1.857 1.869 1.857m-9.341 5.569a1.863 1.863 0 0 0-1.868 1.857c0 1.025.836 1.857 1.868 1.857a1.863 1.863 0 0 0 1.868-1.857 1.863 1.863 0 0 0-1.868-1.857m9.341 9.283a1.863 1.863 0 0 0-1.869 1.857c0 1.025.837 1.857 1.869 1.857a1.863 1.863 0 0 0 1.868-1.857 1.863 1.863 0 0 0-1.868-1.857m-9.341 9.283a1.863 1.863 0 0 0-1.868 1.857c0 1.025.836 1.856 1.868 1.856a1.863 1.863 0 0 0 1.868-1.856 1.863 1.863 0 0 0-1.868-1.857m-18.682-51.984a1.863 1.863 0 0 0 1.868-1.857 1.863 1.863 0 0 0-1.868-1.856 1.863 1.863 0 0 0-1.868 1.856c0 1.025.837 1.857 1.868 1.857m9.341 9.283a1.863 1.863 0 0 0 1.868-1.857 1.863 1.863 0 0 0-1.868-1.856 1.863 1.863 0 0 0-1.868 1.856c0 1.025.837 1.857 1.868 1.857m-9.341 5.57a1.863 1.863 0 0 0-1.868 1.856c0 1.025.837 1.857 1.868 1.857a1.863 1.863 0 0 0 1.868-1.857 1.863 1.863 0 0 0-1.868-1.856m9.341 9.283a1.863 1.863 0 0 0-1.868 1.856c0 1.025.837 1.857 1.868 1.857a1.863 1.863 0 0 0 1.868-1.857 1.863 1.863 0 0 0-1.868-1.856m-9.341 9.282a1.863 1.863 0 0 0-1.868 1.857c0 1.025.837 1.857 1.868 1.857a1.863 1.863 0 0 0 1.868-1.857 1.863 1.863 0 0 0-1.868-1.857m9.341 9.283a1.863 1.863 0 0 0-1.868 1.857c0 1.025.837 1.857 1.868 1.857a1.863 1.863 0 0 0 1.868-1.857 1.863 1.863 0 0 0-1.868-1.857m-9.341 9.283a1.863 1.863 0 0 0-1.868 1.857c0 1.025.837 1.856 1.868 1.856a1.863 1.863 0 0 0 1.868-1.856 1.863 1.863 0 0 0-1.868-1.857m-9.341-46.414a1.863 1.863 0 0 0-1.868 1.856c0 1.025.837 1.857 1.868 1.857a1.863 1.863 0 0 0 1.868-1.857 1.863 1.863 0 0 0-1.868-1.856m-9.341 12.996a1.863 1.863 0 0 0 1.868-1.857 1.863 1.863 0 0 0-1.868-1.856 1.863 1.863 0 0 0-1.868 1.856c0 1.025.837 1.857 1.868 1.857m9.341 5.57a1.863 1.863 0 0 0-1.868 1.856c0 1.025.837 1.857 1.868 1.857a1.863 1.863 0 0 0 1.868-1.857 1.863 1.863 0 0 0-1.868-1.856m-9.341 9.282c-.688 0-1.26.387-1.584.932h3.168c-.325-.545-.897-.932-1.584-.932m9.341 9.283a1.863 1.863 0 0 0-1.868 1.857c0 1.025.837 1.857 1.868 1.857a1.863 1.863 0 0 0 1.868-1.857 1.863 1.863 0 0 0-1.868-1.857m-18.682-18.565a1.863 1.863 0 0 0-1.868 1.856c0 1.025.837 1.857 1.868 1.857a1.863 1.863 0 0 0 1.868-1.857 1.863 1.863 0 0 0-1.868-1.856" fill="#FFF"/><path d="M362.34 161.839c0-20.508-16.728-37.132-37.364-37.132h-22.419c-20.636 0-37.363 16.624-37.363 37.132v3.713c0-20.508 16.727-25.992 37.363-25.992h22.419c20.636 0 37.363 5.484 37.363 25.992v-3.713z" fill-opacity=".2" fill="#FFF"/><path stroke="#504B46" stroke-linecap="round" stroke-linejoin="round" d="M283.875 159.982v29.705h59.782v-29.705"/><path d="M343.657 163.695h18.682v-1.856c0-20.508-16.727-37.132-37.363-37.132h-22.419c-20.636 0-37.363 16.624-37.363 37.132v1.856h18.681" stroke="#504B46" stroke-linecap="round" stroke-linejoin="round"/><path d="M283.875 167.408v-3.713" fill="#EDF2F4"/><path d="M283.875 167.408v-3.713" stroke="#504B46" stroke-linecap="round" stroke-linejoin="round"/><path d="M314 167.404v20.422" fill="#FFD183"/><path d="M314 167.404v20.422" stroke="#504A45" stroke-linecap="round" stroke-linejoin="round"/><path d="M394.098 197.11h-13.312c-9.7 0-18.682-3.372-18.682-27.846v-5.57h-14.946v5.57c0 35.29 18.29 42.698 33.628 42.698h13.312c4.13 0 7.473-3.327 7.473-7.426 0-4.104-3.344-7.427-7.473-7.427" fill="#FFD4C3"/><path d="M394.098 197.11h-13.312c-9.7 0-18.682-3.372-18.682-27.846v-5.57h-14.946v5.57c0 35.29 18.29 42.698 33.628 42.698h13.312c4.13 0 7.473-3.327 7.473-7.426 0-4.104-3.344-7.427-7.473-7.427z" stroke="#504A45"/><path d="M324.976 128.028c0 3.725-1.872 7.204-4.992 9.268a11.263 11.263 0 0 1-12.435 0 11.115 11.115 0 0 1-4.992-9.268v-16.315h22.419v16.315z" fill="#FFDFD1"/><path d="M302.557 124.309c.284.126.55.267.848.382 6.274 2.496 14.449 2.496 20.722 0 .3-.115.565-.256.849-.382V111.71h-22.419v12.599z" fill="#FFCAB3"/><path d="M324.976 128.028c0 3.725-1.872 7.204-4.992 9.268a11.263 11.263 0 0 1-12.435 0 11.115 11.115 0 0 1-4.992-9.268v-16.315h22.419v16.315z" stroke="#504B46" stroke-linecap="round" stroke-linejoin="round"/><path d="M351.13 83.862c0-3.457-2.387-6.334-5.604-7.162v-2.12c0-16.405-15.252-29.706-31.76-29.706-16.507 0-31.759 13.3-31.759 29.705v2.12c-3.217.829-5.604 3.706-5.604 7.163 0 3.487 2.425 6.39 5.686 7.189.852 15.647 15.72 28.086 31.677 28.086 15.958 0 30.826-12.439 31.677-28.086 3.262-.798 5.687-3.702 5.687-7.189" fill="#FFD4C3"/><path d="M351.13 83.862c0-3.457-2.387-6.334-5.604-7.162v-2.12c0-16.405-15.252-29.706-31.76-29.706-16.507 0-31.759 13.3-31.759 29.705v2.12c-3.217.829-5.604 3.706-5.604 7.163 0 3.487 2.425 6.39 5.686 7.189.852 15.647 15.72 28.086 31.677 28.086 15.958 0 30.826-12.439 31.677-28.086 3.262-.798 5.687-3.702 5.687-7.189z" stroke="#504A45"/><path d="M308.162 85.719c-1.155-2.18-3.18-3.713-5.605-3.713-2.425 0-4.45 1.533-5.604 3.713m33.627 0c-1.154-2.18-3.18-3.713-5.604-3.713-2.425 0-4.45 1.533-5.605 3.713" stroke="#504B46" stroke-linecap="round" stroke-linejoin="round"/><path d="M315.868 70.862c10.582 0 20.199-2.551 27.485-6.706-4.757-11.255-16.776-19.283-29.585-19.283-12.016 0-23.333 7.063-28.62 17.222 7.528 5.365 18.484 8.767 30.72 8.767" fill="#F9BEAA"/><path d="M339.298 60.34c.112 3.729 9.087 54.874-25.299 56.935-33.616 2.02-27.712-57.554-22.418-57.554 9.34 1.856 28.243 6.401 48.341-1.857 11.44-46.414-69.99-36.418-67.255 1.857 7.705-3.713 9.341 1.856 9.341 7.426 0 17.749.934 29.241 0 35.275-6.247 40.336 21.406 42.393 32.305 64.052 12.143-22.895 40.637-32.665 31.214-65.444-1.401-4.872 3.5-40.69-6.229-40.69" fill="#FFD183"/><path d="M345.955 118.764c-.127-.004-.25-.026-.377-.034.388.141.78.294 1.158.416.022-.122.033-.252.056-.375-.284-.007-.546.004-.837-.007m-64.648.003c.01.093.026.179.037.268.277-.093.564-.2.844-.305-.123.008-.246.03-.373.034-.176.007-.336 0-.508.003" fill="#FFC258"/><path d="M311.522 116.917c-3.998-.115-7.39-1.15-10.245-2.885-5.578 2.685-12.143 4.352-19.085 4.697-.284.104-.572.212-.848.308.433 3.643 1.259 6.851 2.387 9.718 11.329-.891 21.555-5.236 27.791-11.838m34.057 1.813c-7.323-.367-14.206-2.216-19.967-5.168-2.69 1.555-5.855 2.64-9.565 3.111 6.101 6.613 16.152 11.013 27.365 12.027 1.524-2.952 2.686-6.1 3.322-9.554-.374-.122-.77-.275-1.155-.416" fill="#FFC258"/><path d="M280.005 60.101c9.311-20.467 45.651-27.526 60.148-13.423-2.798-33.89-70.722-22.576-68.222 12.446 4.39-2.112 6.804-1.214 8.074.977" fill="#FFEDD8"/><path d="M339.298 60.34c.112 3.729 9.087 54.874-25.299 56.935-33.616 2.02-27.712-57.554-22.418-57.554 9.34 1.856 28.243 6.401 48.341-1.857 11.44-46.414-69.99-36.418-67.255 1.857 7.705-3.713 9.341 1.856 9.341 7.426 0 17.749.934 29.241 0 35.275-6.247 40.336 21.406 42.393 32.305 64.052 12.143-22.895 41.489-33.184 30.28-66.139-1.633-4.8 8.406-39.994-5.295-39.994z" stroke="#504A45" stroke-linecap="round" stroke-linejoin="round"/><path d="M351.987 102.733c5.137-2.087 8.25 6.42 1.71 7.582-9.703 1.723-31.605-16.657-39.698-11.603-8.09-5.054-29.992 13.326-39.7 11.603-6.538-1.162-3.422-9.669 1.716-7.582-13.391-10.753-18.805 17.463 5.915 16.4 13.67-.586 25.997-6.267 32.069-14.852 6.071 8.585 18.401 14.266 32.073 14.853 24.72 1.062 19.302-27.154 5.915-16.401" fill="#FFD183"/><path d="M351.987 102.733c5.137-2.087 8.25 6.42 1.71 7.582-9.703 1.723-31.605-16.657-39.698-11.603-8.09-5.054-29.992 13.326-39.7 11.603-6.538-1.162-3.422-9.669 1.716-7.582-13.391-10.753-18.805 17.463 5.915 16.4 13.67-.586 25.997-6.267 32.069-14.852 6.071 8.585 18.401 14.266 32.073 14.853 24.72 1.062 19.302-27.154 5.915-16.401z" stroke="#504A45" stroke-linecap="round" stroke-linejoin="round"/><path d="M323.34 204.536c0-4.104-3.343-7.427-7.472-7.427H302.56c-9.703 0-18.682-3.371-18.682-27.845v-5.57h-14.945v5.57c0 35.29 18.286 42.698 33.627 42.698h13.308c4.129 0 7.473-3.327 7.473-7.426" fill="#FFD4C3"/><path d="M323.34 204.536c0-4.104-3.343-7.427-7.472-7.427H302.56c-9.703 0-18.682-3.371-18.682-27.845v-5.57h-14.945v5.57c0 35.29 18.286 42.698 33.627 42.698h13.308c4.129 0 7.473-3.327 7.473-7.426z" stroke="#504A45"/><path d="M368.177 223.101c-37.143 0-67.254-2.495-67.254-5.57 0-3.074 30.111-5.57 67.254-5.57 37.144 0 67.255 2.496 67.255 5.57 0 3.075-30.111 5.57-67.255 5.57z" fill-opacity=".252" fill="#9D9DA3"/><path d="M354.393 204.536h-7.473l17.845-54.981a3.738 3.738 0 0 1 3.557-2.573h4.753" fill="#E3ECF1"/><path d="M354.393 204.536h-7.473l17.845-54.981a3.738 3.738 0 0 1 3.557-2.573h4.753" stroke="#504A45" stroke-linejoin="round"/><path d="M427.252 204.536h-72.859l18.682-57.554h67.73c1.191 0 2.316.568 3.018 1.526a3.69 3.69 0 0 1 .535 3.327l-17.106 52.7z" fill="#ADBAC7"/><path d="M427.252 204.536h-72.859l18.682-57.554h67.73c1.191 0 2.316.568 3.018 1.526a3.69 3.69 0 0 1 .535 3.327l-17.106 52.7z" stroke="#504A45" stroke-linejoin="round"/><path fill="#CAD7DE" d="M422.355 146.982h-49.28l-18.681 57.554h10.047zm4.897 57.554h-76.595v9.282h69.123c4.128 0 7.472-3.323 7.472-7.426v-1.856z"/><path d="M427.252 204.536h-76.595v9.282h69.123c4.128 0 7.472-3.323 7.472-7.426v-1.856z" stroke="#504A45" stroke-linejoin="round"/><path d="M350.657 204.536h-37.364v1.856c0 4.103 3.344 7.426 7.473 7.426h29.89v-9.282z" fill="#E3ECF1"/><path d="M350.657 204.536h-37.364v1.856c0 4.103 3.344 7.426 7.473 7.426h29.89v-9.282z" stroke="#504A45" stroke-linejoin="round"/><path d="M406.108 173.71c-.023-2.31 1.894-3.42 1.984-3.472-1.08-1.567-2.761-1.783-3.36-1.809-1.426-.144-2.786.836-3.515.836-.721 0-1.842-.813-3.026-.795-1.559.026-2.997.903-3.797 2.288-1.621 2.792-.414 6.925 1.162 9.19.77 1.11 1.693 2.354 2.896 2.306 1.166-.045 1.603-.747 3.008-.747s1.8.747 3.03.724c1.252-.018 2.044-1.125 2.81-2.239.885-1.284 1.248-2.528 1.27-2.595-.03-.011-2.436-.929-2.462-3.687" fill="#EDF2F4"/><path d="M406.108 173.71c-.023-2.31 1.894-3.42 1.984-3.472-1.08-1.567-2.761-1.783-3.36-1.809-1.426-.144-2.786.836-3.515.836-.721 0-1.842-.813-3.026-.795-1.559.026-2.997.903-3.797 2.288-1.621 2.792-.414 6.925 1.162 9.19.77 1.11 1.693 2.354 2.896 2.306 1.166-.045 1.603-.747 3.008-.747s1.8.747 3.03.724c1.252-.018 2.044-1.125 2.81-2.239.885-1.284 1.248-2.528 1.27-2.595-.03-.011-2.436-.929-2.462-3.687z" stroke="#504A45" stroke-linejoin="round"/><path d="M402.966 163.69l1.685-1.674" stroke="#504A45" stroke-linecap="round" stroke-linejoin="round"/><path d="M427.252 204.536h-72.859l18.682-57.554h67.73c1.191 0 2.316.568 3.018 1.526a3.69 3.69 0 0 1 .535 3.327l-17.106 52.7z" stroke="#504A45" stroke-linejoin="round"/><g transform="translate(7 46)"><use fill="#000" filter="url(#b)" xlink:href="#c"/><use fill="#FFF" xlink:href="#c"/><path stroke-opacity=".055" stroke="#323B43" d="M235.224 21l-7.906-6.667V1.993c0-.818-.677-1.493-1.504-1.493H2.004C1.171.5.5 1.168.5 1.993v52.014c0 .818.677 1.493 1.504 1.493h223.81c.833 0 1.504-.668 1.504-1.493v-26.34L235.224 21z"/><rect fill="#EBECF2" x="16.624" y="17.756" width="153.431" height="8.195" rx="4.098"/><rect fill="#EBECF2" x="16.624" y="31.415" width="90.03" height="8.195" rx="4.098"/></g><g transform="translate(9 114)"><use fill="#000" filter="url(#d)" xlink:href="#e"/><use fill="#FFF" xlink:href="#e"/><path stroke-opacity=".055" stroke="#323B43" d="M233.228 23l-8.151-6.932V1.992A1.5 1.5 0 0 0 223.575.5H2.002C1.172.5.5 1.169.5 1.992v67.016A1.5 1.5 0 0 0 2.002 70.5h221.573c.83 0 1.502-.669 1.502-1.492V29.932L233.228 23z"/><rect fill="#EBECF2" x="15.605" y="17.75" width="153.221" height="8.192" rx="4.096"/><rect fill="#EBECF2" x="15.605" y="46.423" width="122.449" height="8.192" rx="4.096"/><rect fill="#EBECF2" x="15.605" y="31.404" width="89.906" height="8.192" rx="4.096"/></g></g></svg>